<?xml version="1.0" encoding="utf-8"?><svg width="1152" height="1024" viewBox="0 0 1152 1024" xmlns="http://www.w3.org/2000/svg" xmlns:xlink="http://www.w3.org/1999/xlink"><svg aria-hidden="true" data-prefix="fas" data-icon="code" class="asvg-inline--fa afa-code afa-w-20" viewBox="0 0 640 512" width="640" height="512" id="New_folder-code" xmlns="http://www.w3.org/2000/svg"><path fill="currentColor" d="M278.9 511.5l-61-17.7c-6.4-1.8-10-8.5-8.2-14.9L346.2 8.7c1.8-6.4 8.5-10 14.9-8.2l61 17.7c6.4 1.8 10 8.5 8.2 14.9L293.8 503.3c-1.9 6.4-8.5 10.1-14.9 8.2zm-114-112.2l43.5-46.4c4.6-4.9 4.3-12.7-.8-17.2L117 256l90.6-79.7c5.1-4.5 5.5-12.3.8-17.2l-43.5-46.4c-4.5-4.8-12.1-5.1-17-.5L3.8 247.2c-5.1 4.7-5.1 12.8 0 17.5l144.1 135.1c4.9 4.6 12.5 4.4 17-.5zm327.2.6l144.1-135.1c5.1-4.7 5.1-12.8 0-17.5L492.1 112.1c-4.8-4.5-12.4-4.3-17 .5L431.6 159c-4.6 4.9-4.3 12.7.8 17.2L523 256l-90.6 79.7c-5.1 4.5-5.5 12.3-.8 17.2l43.5 46.4c4.5 4.9 12.1 5.1 17 .6z"/></svg><svg aria-hidden="true" data-prefix="fas" data-icon="crop-alt" class="bsvg-inline--fa bfa-crop-alt bfa-w-16" viewBox="0 0 512 512" width="512" height="512" id="New_folder-crop" x="640" xmlns="http://www.w3.org/2000/svg"><path fill="currentColor" d="M488 352h-40V96c0-17.67-14.33-32-32-32H192v96h160v328c0 13.25 10.75 24 24 24h48c13.25 0 24-10.75 24-24v-40h40c13.25 0 24-10.75 24-24v-48c0-13.26-10.75-24-24-24zM160 24c0-13.26-10.75-24-24-24H88C74.75 0 64 10.74 64 24v40H24C10.75 64 0 74.74 0 88v48c0 13.25 10.75 24 24 24h40v256c0 17.67 14.33 32 32 32h224v-96H160V24z"/></svg><svg aria-hidden="true" data-prefix="fas" data-icon="database" class="csvg-inline--fa cfa-database cfa-w-14" viewBox="0 0 448 512" width="448" height="512" id="New_folder-database" y="512" xmlns="http://www.w3.org/2000/svg"><path fill="currentColor" d="M448 73.143v45.714C448 159.143 347.667 192 224 192S0 159.143 0 118.857V73.143C0 32.857 100.333 0 224 0s224 32.857 224 73.143zM448 176v102.857C448 319.143 347.667 352 224 352S0 319.143 0 278.857V176c48.125 33.143 136.208 48.572 224 48.572S399.874 209.143 448 176zm0 160v102.857C448 479.143 347.667 512 224 512S0 479.143 0 438.857V336c48.125 33.143 136.208 48.572 224 48.572S399.874 369.143 448 336z"/></svg><svg aria-hidden="true" data-prefix="fas" data-icon="mobile" class="dsvg-inline--fa dfa-mobile dfa-w-10" viewBox="0 0 320 512" width="320" height="512" id="New_folder-mobile" x="448" y="512" xmlns="http://www.w3.org/2000/svg"><path fill="currentColor" d="M272 0H48C21.5 0 0 21.5 0 48v416c0 26.5 21.5 48 48 48h224c26.5 0 48-21.5 48-48V48c0-26.5-21.5-48-48-48zM160 480c-17.7 0-32-14.3-32-32s14.3-32 32-32 32 14.3 32 32-14.3 32-32 32z"/></svg><svg width="16" height="16" viewBox="0 0 16 16" id="at" x="768" y="512" xmlns="http://www.w3.org/2000/svg"><path d="M8 .25A7.746 7.746 0 00.25 8a7.746 7.746 0 0011.98 6.492.753.753 0 00.176-1.105l-.32-.387a.744.744 0 00-.98-.16A5.755 5.755 0 012.25 8a5.755 5.755 0 015.749-5.75c3.129 0 5.75 1.8 5.75 5 0 1.21-.66 2.492-1.816 2.617-.543-.015-.532-.402-.422-.941l.73-3.785a.75.75 0 00-.734-.891h-1.406a.426.426 0 00-.422.375v.004c-.457-.563-1.262-.684-1.871-.684C5.477 3.945 3.5 5.891 3.5 8.68c0 2.043 1.148 3.308 3 3.308.844 0 1.793-.488 2.344-1.199.297 1.066 1.27 1.066 2.21 1.066 3.403 0 4.696-2.238 4.696-4.605 0-4.262-3.438-7-7.75-7zm-.676 9.512c-.695 0-1.129-.489-1.129-1.274 0-1.406.961-2.273 1.832-2.273.696 0 1.114.476 1.114 1.277 0 1.406-1.059 2.27-1.817 2.27zm0 0" fill="#7f7f7f"/></svg><svg width="16" height="16" viewBox="0 0 16 16" id="compass" x="784" y="512" xmlns="http://www.w3.org/2000/svg"><path d="M7.27 7.293a.98.98 0 000 1.414c.402.39 1.058.39 1.46 0a.98.98 0 000-1.414 1.057 1.057 0 00-1.46 0zM8 .25C3.582.25 0 3.719 0 8c0 4.281 3.582 7.75 8 7.75s8-3.469 8-7.75C16 3.719 12.418.25 8 .25zm4.07 4.625L9.941 9.387a1.006 1.006 0 01-.507.492L4.777 11.94c-.539.239-1.093-.296-.847-.816l2.129-4.512a1.02 1.02 0 01.507-.492l4.657-2.062c.539-.239 1.093.296.847.816zm0 0" fill="#7f7f7f"/></svg><svg width="16" height="16" viewBox="0 0 16 16" id="envelope" x="800" y="512" xmlns="http://www.w3.org/2000/svg"><path d="M15.695 5.96c.125-.093.305-.003.305.15v6.39a1.5 1.5 0 01-1.5 1.5h-13A1.5 1.5 0 010 12.5V6.113c0-.156.18-.246.305-.148.699.543 1.625 1.234 4.812 3.55.66.481 1.774 1.493 2.883 1.489 1.117.008 2.25-1.027 2.883-1.488 3.187-2.317 4.113-3.008 4.812-3.555zM8 10c.727.012 1.77-.914 2.293-1.293 4.148-3.012 4.465-3.273 5.418-4.023.184-.141.289-.36.289-.59V3.5A1.5 1.5 0 0014.5 2h-13A1.5 1.5 0 000 3.5v.594c0 .23.105.445.29.59.952.746 1.269 1.011 5.417 4.023C6.23 9.086 7.273 10.012 8 10zm0 0" fill="#7f7f7f"/></svg><svg width="10" height="16" viewBox="0 0 10 16" id="mobile" x="816" y="512" xmlns="http://www.w3.org/2000/svg"><path d="M8.5 0h-7A1.5 1.5 0 000 1.5v13A1.5 1.5 0 001.5 16h7a1.5 1.5 0 001.5-1.5v-13A1.5 1.5 0 008.5 0zM5 15c-.555 0-1-.445-1-1 0-.555.445-1 1-1 .555 0 1 .445 1 1 0 .555-.445 1-1 1zm0 0" fill="#7f7f7f"/></svg></svg>