<?xml version="1.0" encoding="UTF-8"?>
<svg xmlns="http://www.w3.org/2000/svg" xmlns:xlink="http://www.w3.org/1999/xlink" width="16pt" height="16pt" viewBox="0 0 16 16" version="1.1">
<g id="surface1">
<path style=" stroke:none;fill-rule:nonzero;fill:#7f7f7f;fill-opacity:1;" d="M 8 0.25 C 3.71875 0.25 0.25 3.714844 0.25 8 C 0.25 12.28125 3.714844 15.75 8 15.75 C 9.503906 15.75 10.980469 15.308594 12.230469 14.492188 C 12.605469 14.25 12.6875 13.734375 12.40625 13.386719 L 12.085938 13 C 11.847656 12.707031 11.425781 12.632812 11.105469 12.839844 C 10.183594 13.429688 9.105469 13.75 8 13.75 C 4.828125 13.75 2.25 11.171875 2.25 8 C 2.25 4.828125 4.828125 2.25 8 2.25 C 11.128906 2.25 13.75 4.050781 13.75 7.25 C 13.75 8.460938 13.089844 9.742188 11.933594 9.867188 C 11.390625 9.851562 11.402344 9.464844 11.511719 8.925781 L 12.242188 5.140625 C 12.332031 4.679688 11.976562 4.25 11.507812 4.25 L 10.101562 4.25 C 9.886719 4.25 9.707031 4.410156 9.679688 4.625 L 9.679688 4.628906 C 9.222656 4.066406 8.417969 3.945312 7.808594 3.945312 C 5.476562 3.945312 3.5 5.890625 3.5 8.679688 C 3.5 10.722656 4.648438 11.988281 6.5 11.988281 C 7.34375 11.988281 8.292969 11.5 8.84375 10.789062 C 9.140625 11.855469 10.113281 11.855469 11.054688 11.855469 C 14.457031 11.855469 15.75 9.617188 15.75 7.25 C 15.75 2.988281 12.3125 0.25 8 0.25 Z M 7.324219 9.761719 C 6.628906 9.761719 6.195312 9.273438 6.195312 8.488281 C 6.195312 7.082031 7.15625 6.214844 8.027344 6.214844 C 8.722656 6.214844 9.140625 6.691406 9.140625 7.492188 C 9.140625 8.898438 8.082031 9.761719 7.324219 9.761719 Z M 7.324219 9.761719 "/>
</g>
</svg>
