<?xml version="1.0" encoding="UTF-8"?>
<svg xmlns="http://www.w3.org/2000/svg" xmlns:xlink="http://www.w3.org/1999/xlink" width="16pt" height="16pt" viewBox="0 0 16 16" version="1.1">
<g id="surface1">
<path style=" stroke:none;fill-rule:nonzero;fill:#7f7f7f;fill-opacity:1;" d="M 7.269531 7.292969 C 6.867188 7.683594 6.867188 8.316406 7.269531 8.707031 C 7.671875 9.097656 8.328125 9.097656 8.730469 8.707031 C 9.132812 8.316406 9.132812 7.683594 8.730469 7.292969 C 8.328125 6.902344 7.671875 6.902344 7.269531 7.292969 Z M 8 0.25 C 3.582031 0.25 0 3.71875 0 8 C 0 12.28125 3.582031 15.75 8 15.75 C 12.417969 15.75 16 12.28125 16 8 C 16 3.71875 12.417969 0.25 8 0.25 Z M 12.070312 4.875 L 9.941406 9.386719 C 9.839844 9.605469 9.65625 9.78125 9.433594 9.878906 L 4.777344 11.941406 C 4.238281 12.179688 3.683594 11.644531 3.929688 11.125 L 6.058594 6.613281 C 6.164062 6.394531 6.34375 6.21875 6.566406 6.121094 L 11.222656 4.058594 C 11.761719 3.820312 12.316406 4.355469 12.070312 4.875 Z M 12.070312 4.875 "/>
</g>
</svg>
