<?xml version="1.0" encoding="UTF-8"?>
<svg xmlns="http://www.w3.org/2000/svg" xmlns:xlink="http://www.w3.org/1999/xlink" width="16pt" height="16pt" viewBox="0 0 16 16" version="1.1">
<g id="surface1">
<path style=" stroke:none;fill-rule:nonzero;fill:#7f7f7f;fill-opacity:1;" d="M 15.695312 5.960938 C 15.820312 5.867188 16 5.957031 16 6.109375 L 16 12.5 C 16 13.328125 15.328125 14 14.5 14 L 1.5 14 C 0.671875 14 0 13.328125 0 12.5 L 0 6.113281 C 0 5.957031 0.179688 5.867188 0.304688 5.964844 C 1.003906 6.507812 1.929688 7.199219 5.117188 9.515625 C 5.777344 9.996094 6.890625 11.007812 8 11.003906 C 9.117188 11.011719 10.25 9.976562 10.882812 9.515625 C 14.070312 7.199219 14.996094 6.507812 15.695312 5.960938 Z M 8 10 C 8.726562 10.011719 9.769531 9.085938 10.292969 8.707031 C 14.441406 5.695312 14.757812 5.433594 15.710938 4.683594 C 15.894531 4.542969 16 4.324219 16 4.09375 L 16 3.5 C 16 2.671875 15.328125 2 14.5 2 L 1.5 2 C 0.671875 2 0 2.671875 0 3.5 L 0 4.09375 C 0 4.324219 0.105469 4.539062 0.289062 4.683594 C 1.242188 5.429688 1.558594 5.695312 5.707031 8.707031 C 6.230469 9.085938 7.273438 10.011719 8 10 Z M 8 10 "/>
</g>
</svg>
